<?xml version="1.0" encoding="utf-8"?>
<!-- Generator: Adobe Illustrator 21.0.0, SVG Export Plug-In . SVG Version: 6.00 Build 0)  -->
<svg version="1.1" id="Livello_1" xmlns="http://www.w3.org/2000/svg" xmlns:xlink="http://www.w3.org/1999/xlink" x="0px" y="0px"
	 viewBox="0 0 323 49" style="enable-background:new 0 0 323 49;" xml:space="preserve">
<style type="text/css">
	.st0{fill:#0277BD;}
</style>
<title>4D094295-376E-4EEB-9C47-0DADE6048873</title>
<desc>Created with sketchtool.</desc>
<g id="Ultima-Dashboard">
	<g id="Desktop-HD-Dark-Menu" transform="translate(-370.000000, -259.000000)">
		<g id="Content" transform="translate(359.000000, 153.000000)">
			<g id="Row-1">
				<g id="Sales">
					<g id="Sales---Graph" transform="translate(11.000000, 106.000000)">
						<rect id="Rectangle-3" y="30" class="st0" width="3" height="19"/>
						<rect id="Rectangle-3_1_" x="10" y="43" class="st0" width="3" height="6"/>
						<rect id="Rectangle-3_2_" x="20" y="39" class="st0" width="3" height="10"/>
						<rect id="Rectangle-3_3_" x="30" y="44" class="st0" width="3" height="5"/>
						<rect id="Rectangle-3_4_" x="40" y="24" class="st0" width="3" height="25"/>
						<rect id="Rectangle-3_5_" x="50" y="26" class="st0" width="3" height="23"/>
						<rect id="Rectangle-3_6_" x="60" y="19" class="st0" width="3" height="30"/>
						<rect id="Rectangle-3_7_" x="70" y="17" class="st0" width="3" height="32"/>
						<rect id="Rectangle-3_8_" x="80" y="22" class="st0" width="3" height="27"/>
						<rect id="Rectangle-3_9_" x="90" y="28" class="st0" width="3" height="21"/>
						<rect id="Rectangle-3_10_" x="100" y="37" class="st0" width="3" height="12"/>
						<rect id="Rectangle-3_11_" x="110" y="13" class="st0" width="3" height="36"/>
						<rect id="Rectangle-3_12_" x="120" y="35" class="st0" width="3" height="14"/>
						<rect id="Rectangle-3_13_" x="130" y="37" class="st0" width="3" height="12"/>
						<rect id="Rectangle-3_14_" x="140" y="30" class="st0" width="3" height="19"/>
						<rect id="Rectangle-3_15_" x="150" y="19" class="st0" width="3" height="30"/>
						<rect id="Rectangle-3_16_" x="160" y="24" class="st0" width="3" height="25"/>
						<rect id="Rectangle-3_17_" x="170" y="43" class="st0" width="3" height="6"/>
						<rect id="Rectangle-3_18_" x="180" y="42" class="st0" width="3" height="7"/>
						<rect id="Rectangle-3_19_" x="190" y="44" class="st0" width="3" height="5"/>
						<rect id="Rectangle-3_20_" x="200" y="43" class="st0" width="3" height="6"/>
						<rect id="Rectangle-3_21_" x="210" y="39" class="st0" width="3" height="10"/>
						<rect id="Rectangle-3_22_" x="220" y="46" class="st0" width="3" height="3"/>
						<rect id="Rectangle-3_23_" x="230" y="34" class="st0" width="3" height="15"/>
						<rect id="Rectangle-3_24_" x="240" y="24" class="st0" width="3" height="25"/>
						<rect id="Rectangle-3_25_" x="250" y="25" class="st0" width="3" height="24"/>
						<rect id="Rectangle-3_26_" x="260" y="16" class="st0" width="3" height="33"/>
						<rect id="Rectangle-3_27_" x="270" y="21" class="st0" width="3" height="28"/>
						<rect id="Rectangle-3_28_" x="280" y="10" class="st0" width="3" height="39"/>
						<rect id="Rectangle-3_29_" x="290" y="7" class="st0" width="3" height="42"/>
						<rect id="Rectangle-3_30_" x="300" class="st0" width="3" height="49"/>
						<rect id="Rectangle-3_31_" x="310" y="12" class="st0" width="3" height="37"/>
						<rect id="Rectangle-3_32_" x="320" y="5" class="st0" width="3" height="44"/>
					</g>
				</g>
			</g>
		</g>
	</g>
</g>
</svg>
